<svg width="855" height="714" viewBox="0 0 855 714" fill="none" xmlns="http://www.w3.org/2000/svg">
<path d="M116 452C90.8 510 94.5 563.833 99.5 583.5C7.49998 626.3 -3.5 687 2.50001 712C20.5 666.8 82.3333 643.5 111 637.5C175.8 648.3 213.333 675.667 224 688C212.4 624 155.167 589.667 128 580.5C127.2 526.1 220.333 490.833 267 480C316.6 467.2 382 448 408.5 440C499.3 413.6 585.667 362 617.5 339.5C627.9 398.3 632.5 494 633.5 534.5C636.3 551.3 641 549.167 643 546C701 429.6 683.833 333.833 668 300.5C708.4 273.3 762.833 207.5 785 178C806.6 157.2 836.667 91.3333 849 61C860.6 33.8 849.5 17.3333 842.5 12.5C838.9 10.5 835.667 11.6667 834.5 12.5C834.1 7.29998 831.667 4.33332 830.5 3.49999C809.7 -3.70001 777.5 6.49999 764 12.5C710.8 46.5 641.833 71.6667 614 80C571.2 93.6 474.167 147 431 172C393.8 183.2 281.5 267.667 230 308.5C178.8 342.1 132.667 418.167 116 452Z" stroke="black"/>
</svg>
